<?xml version="1.0" encoding="utf-8"?>
<!-- Generator: Adobe Illustrator 24.0.2, SVG Export Plug-In . SVG Version: 6.00 Build 0)  -->
<svg version="1.1" id="Layer_1" xmlns="http://www.w3.org/2000/svg" xmlns:xlink="http://www.w3.org/1999/xlink" x="0px" y="0px"
	 viewBox="0 0 391.6 94.9" style="enable-background:new 0 0 391.6 94.9;" xml:space="preserve">
<style type="text/css">
	.st0{fill:#FFFFFF;stroke:#FFFFFF;stroke-miterlimit:10;}
	.st1{fill:#FFFFFF;}
</style>
<g>
	<polygon class="st0" points="127.7,60.6 128.3,59.8 147.9,33.6 147.9,26.1 115.1,26.1 115.1,34.1 135.2,34.1 136.2,34.1 
		135.6,34.9 114.5,62.4 114.5,68.6 148.4,68.6 148.4,60.6 128.7,60.6 	"/>
	<path class="st0" d="M169.2,36c-9.2,0-16.2,7.2-16.2,16.8c0,9.6,6.9,16.8,16.1,16.8c7.1,0,12.4-3.3,14.9-9.3l-8-1.7
		c-1.5,2.5-3.7,3.7-7,3.7c-3.6,0-6.4-2.6-7.3-6.7l-0.1-0.6h0.6h22.6v-2.2C184.8,42.9,178.3,36,169.2,36z M175.5,49.6h-13h-0.7
		L162,49c1.1-3.8,4.4-5.5,7.1-5.5c3.3,0,5.9,2.1,6.8,5.5l0.2,0.6H175.5z"/>
	<path class="st0" d="M211.6,36.5c-4.4,0-8,2.2-10.4,6.4l-0.9,1.6v-1.9V37h-9v31.6h9v-9.7c0-8.4,3.8-12.7,11.4-12.7h1.3l0.4-9.5
		C212.8,36.6,212.3,36.5,211.6,36.5z"/>
	<path class="st0" d="M233.3,36.2c-9.7,0-17,7.2-17,16.6c0,9.5,7.3,16.7,17,16.7c9.6,0,16.8-7.2,16.8-16.7
		C250.1,43.3,242.9,36.2,233.3,36.2z M233.3,61.7c-4,0-8.3-3.1-8.3-8.9c0-4.4,3.1-8.9,8.3-8.9c4,0,8.1,3.3,8.1,8.9
		C241.4,58.4,237.3,61.7,233.3,61.7z"/>
	<path class="st0" d="M278.5,43.8l-8.7-2c-2.6-0.6-3.8-1.9-3.8-4.1c0-2.8,2.6-4.9,6.2-4.9c3,0,6.7,1.6,7.7,6l9.2-1.9
		c-1.7-7.3-7.9-11.7-16.8-11.7c-9.8,0-16.1,5.2-16.1,13.2c0,6.4,3.6,10.4,10.9,12.1l8.8,1.9c3,0.6,4.3,1.9,4.3,4.3c0,3-2.6,5-6.7,5
		c-4.5,0-7.5-2.2-8.7-6.3l-9.7,2c1.2,7.5,8.2,12.3,17.8,12.3c8.4,0,16.8-4.2,16.8-13.6C289.7,49.6,285.9,45.5,278.5,43.8z"/>
	<path class="st0" d="M318.1,43.8l-8.7-2c-2.6-0.6-3.8-1.9-3.8-4.1c0-2.8,2.6-4.9,6.2-4.9c3,0,6.7,1.6,7.7,6l9.2-1.9
		c-1.7-7.3-7.9-11.7-16.8-11.7c-9.8,0-16.1,5.2-16.1,13.2c0,6.4,3.6,10.4,10.9,12.1l8.8,1.9c3,0.6,4.3,1.9,4.3,4.3c0,3-2.6,5-6.7,5
		c-4.5,0-7.5-2.2-8.7-6.3l-9.7,2c1.2,7.5,8.2,12.3,17.8,12.3c8.4,0,16.8-4.2,16.8-13.6C329.3,49.6,325.5,45.5,318.1,43.8z"/>
	<polygon class="st0" points="345.8,60.2 345.8,59.7 345.8,26.1 336.4,26.1 336.4,68.6 366.5,68.6 366.5,60.2 346.3,60.2 	"/>
</g>
<g>
	<rect x="7.1" y="67.7" class="st1" width="20.3" height="20.3"/>
	<polygon class="st1" points="67.8,47.4 67.8,27.2 47.6,27.2 47.6,7 27.4,7 27.4,27.2 7.1,27.2 7.1,47.4 27.4,47.4 27.4,67.7 
		47.6,67.7 47.6,87.9 67.8,87.9 67.8,67.7 88.1,67.7 88.1,47.4 	"/>
</g>
<g>
	<polygon class="st1" points="371.6,26.5 371.6,27 371.6,35.1 373.5,35.1 373.5,27 373.5,26.5 374,26.5 377.1,26.5 377.1,24.6 
		368,24.6 368,26.5 371.1,26.5 	"/>
	<polygon class="st1" points="385.1,28.1 384.7,28.5 384.4,28.1 380.8,24.6 379.5,24.6 379.5,35.1 381.4,35.1 381.4,29 381.4,27.8 
		382.3,28.6 384.4,30.8 385.2,30.8 387.4,28.6 388.2,27.8 388.2,29 388.2,35.1 390.1,35.1 390.1,24.6 388.6,24.6 	"/>
</g>
</svg>
